# xmcd
#
# Track frame offsets:
#	150
#	13240
#	28542
#	47194
#	67477
#	80236
#	97445
#	113308
#	132250
#	142537
#	157819
#	167968
#	178961
#	197735
#
# Disc length: 2894 seconds
#
# Revision: 0
# Processed by: cddbd v1.5.1PL0 Copyright (c) Steve Scherf et al.
# Submitted via: dBpowerAMP V4.0
#
DISCID=c80b4c0e
DTITLE=Texas Lightning - Meanwhile, back at the Ranch
DYEAR=2005
DGENRE=Country
TTITLE0=Bad Case of Loving You
TTITLE1=Like a Virgin
TTITLE2=Kiss
TTITLE3=Over the Mountains
TTITLE4=C'est la vie
TTITLE5=Highway to Hell
TTITLE6=Dancing Queen
TTITLE7=Man in the Mirror
TTITLE8=Norwegian Wood
TTITLE9=Smoke, Smoke, Smoke(That Cigarette)
TTITLE10=Walking after Midnight
TTITLE11=Raindrops keep falling on my Head
TTITLE12=Walk on the Wild Side
TTITLE13=Blue Bayou
EXTD=The Best european Texas Band in the World!(L.Hagman]\nRipped by Onkel Gille
EXTT0=
EXTT1=
EXTT2=
EXTT3=
EXTT4=
EXTT5=
EXTT6=
EXTT7=
EXTT8=
EXTT9=
EXTT10=
EXTT11=
EXTT12=
EXTT13=
PLAYORDER=
